<svg width="43" height="44" viewBox="0 0 43 44" fill="none" xmlns="http://www.w3.org/2000/svg">
<path d="M13.3125 0C16.5695 0.41756 17.9469 0.634433 20.3125 3C20.5124 5.76178 20.5923 8.4211 20.5781 11.1836C20.58 11.9949 20.582 12.8062 20.5839 13.6421C20.5853 15.3595 20.5816 17.0768 20.5732 18.7942C20.5626 21.4236 20.5731 24.0523 20.5859 26.6816C20.5846 28.349 20.5821 30.0163 20.5781 31.6836C20.5822 32.4712 20.5862 33.2587 20.5904 34.0702C20.5574 37.9065 20.4908 39.7326 18.3125 43C15.1875 43.1875 15.1875 43.1875 12.3125 43C11.9722 42.0409 11.9722 42.0409 11.625 41.0625C10.46 38.7281 10.46 38.7281 7.6875 38.25C6.90375 38.1675 6.12 38.085 5.3125 38C5.04438 37.0719 4.77625 36.1438 4.5 35.1875C3.61088 32.0368 3.61088 32.0368 1.6875 30.5625C0.3125 29 0.3125 29 0 25.5625C0.290781 22.2476 0.728023 20.7961 2.3125 18C2.68918 16.3426 3.03308 14.6765 3.3125 13C4.3025 12.67 5.2925 12.34 6.3125 12C6.6425 10.02 6.9725 8.04 7.3125 6C8.3025 5.67 9.2925 5.34 10.3125 5C11.4626 3.03327 11.4626 3.03327 12.3125 1C12.6425 0.67 12.9725 0.34 13.3125 0Z" fill="#344657"/>
<path d="M27.4375 0.875C28.3862 0.91625 29.335 0.9575 30.3125 1C30.5806 1.63937 30.8487 2.27875 31.125 2.9375C32.1992 5.33132 32.1992 5.33132 35.3125 6C35.4362 7.42313 35.4362 7.42313 35.5625 8.875C35.9632 12.1046 35.9632 12.1046 38.375 13.375C39.0144 13.5812 39.6537 13.7875 40.3125 14C40.2712 14.9488 40.23 15.8975 40.1875 16.875C39.9628 20.1024 39.9628 20.1024 42.3125 22C42.625 25.4375 42.625 25.4375 42.3125 29C40.9375 30.5625 40.9375 30.5625 39.3125 32C38.112 35.1001 38.112 35.1001 37.3125 38C36.5287 38.0825 35.745 38.165 34.9375 38.25C32.165 38.7281 32.165 38.7281 31 41.0625C30.7731 41.7019 30.5462 42.3413 30.3125 43C27.4375 43.1875 27.4375 43.1875 24.3125 43C21.7717 39.1888 22.0242 36.0992 22.0469 31.6836C22.045 30.8713 22.043 30.0591 22.0411 29.2222C22.0397 27.5066 22.0434 25.791 22.0518 24.0754C22.0625 21.4439 22.0518 18.8131 22.0391 16.1816C22.0404 14.5156 22.0429 12.8496 22.0469 11.1836C22.0428 10.394 22.0388 9.6044 22.0346 8.79088C22.101 1.08846 22.101 1.08846 27.4375 0.875Z" fill="#344556"/>
</svg>
