<svg width="42" height="43" viewBox="0 0 42 43" fill="none" xmlns="http://www.w3.org/2000/svg">
<path d="M27.4297 0C31.2047 1.43811 32.7563 3.74399 35.0547 7C35.6797 9.1875 35.6797 9.1875 36.0547 11C36.591 11.4538 37.1272 11.9075 37.6797 12.375C38.1335 12.9112 38.5872 13.4475 39.0547 14C38.7422 17.1875 38.7422 17.1875 38.0547 20C38.7147 20 39.3747 20 40.0547 20C41.533 22.9566 41.115 25.7423 41.0547 29C39.0747 29.99 39.0747 29.99 37.0547 31C37.1166 32.1756 37.1166 32.1756 37.1797 33.375C37.0547 36 37.0547 36 35.0547 38C33.7347 38 32.4147 38 31.0547 38C30.3947 39.32 29.7347 40.64 29.0547 42C26.6797 42.125 26.6797 42.125 24.0547 42C21.4553 39.4006 21.7959 37.5736 21.7512 34.031C21.7521 33.2164 21.753 32.4018 21.7539 31.5625C21.7496 30.7266 21.7454 29.8907 21.7409 29.0295C21.7352 27.2609 21.7347 25.4923 21.739 23.7236C21.7422 21.0107 21.7187 18.2988 21.6934 15.5859C21.6911 13.8698 21.6904 12.1536 21.6914 10.4375C21.6822 9.62289 21.673 8.80829 21.6635 7.96899C21.6824 5.68359 21.6824 5.68359 22.0547 2C25.0547 0 25.0547 0 27.4297 0Z" fill="#1170FD"/>
<path d="M18.0547 0.999975C20.1247 3.06999 19.2188 7.48763 19.2227 10.3398C19.226 11.1771 19.2293 12.0144 19.2327 12.8771C19.2378 14.6517 19.2402 16.4263 19.24 18.2009C19.2422 20.9225 19.2603 23.6437 19.2793 26.3652C19.2822 28.0859 19.2842 29.8066 19.2852 31.5273C19.2923 32.3451 19.2995 33.1628 19.3069 34.0053C19.2835 39.7712 19.2835 39.7712 17.0547 42C14.4297 42.125 14.4297 42.125 12.0547 42C11.7144 41.0409 11.7144 41.0409 11.3672 40.0625C10.2108 37.7325 10.2108 37.7325 7.49219 37.3125C6.68781 37.2094 5.88344 37.1062 5.05469 37C4.05469 36 4.05469 36 3.99219 33.4375C4.01281 32.6331 4.03344 31.8287 4.05469 31C2.73469 30.34 1.41469 29.68 0.0546875 29C-0.0703125 22.25 -0.0703125 22.25 1.05469 20C1.71469 20 2.37469 20 3.05469 20C2.82781 19.0719 2.60094 18.1437 2.36719 17.1875C2.26406 16.1356 2.16094 15.0837 2.05469 14C3.36719 12.4375 3.36719 12.4375 5.05469 11C5.36406 10.2162 5.67344 9.43248 5.99219 8.62498C8.54544 2.31694 11.3639 -0.715611 18.0547 0.999975Z" fill="#1170FD"/>
</svg>
